<svg viewBox="0 0 1200 820" xmlns="http://www.w3.org/2000/svg" font-family="'Pretendard', 'Apple SD Gothic Neo', system-ui, sans-serif">
  <defs>
    <filter id="sh"><feDropShadow dx="0" dy="3" stdDeviation="4" flood-opacity="0.12"/></filter>
    <filter id="shSm"><feDropShadow dx="0" dy="1" stdDeviation="2" flood-opacity="0.08"/></filter>
    <marker id="ar" markerWidth="10" markerHeight="7" refX="10" refY="3.5" orient="auto"><polygon points="0 0,10 3.5,0 7" fill="#4a8db8"/></marker>
    <marker id="arG" markerWidth="10" markerHeight="7" refX="10" refY="3.5" orient="auto"><polygon points="0 0,10 3.5,0 7" fill="#27ae60"/></marker>
    <marker id="arO" markerWidth="10" markerHeight="7" refX="10" refY="3.5" orient="auto"><polygon points="0 0,10 3.5,0 7" fill="#e67e22"/></marker>
    <marker id="arR" markerWidth="10" markerHeight="7" refX="10" refY="3.5" orient="auto"><polygon points="0 0,10 3.5,0 7" fill="#e74c3c"/></marker>
    <marker id="arP" markerWidth="10" markerHeight="7" refX="10" refY="3.5" orient="auto"><polygon points="0 0,10 3.5,0 7" fill="#9b59b6"/></marker>
  </defs>

  <rect width="1200" height="820" rx="12" fill="#f8fafb"/>

  <!-- Title -->
  <text x="600" y="32" text-anchor="middle" font-size="18" font-weight="700" fill="#1e293b" letter-spacing="-0.02em">WikiEngine Infrastructure</text>
  <text x="600" y="50" text-anchor="middle" font-size="11" fill="#94a3b8">Oracle Cloud Free Tier  ·  4 Servers  ·  20+ Containers  ·  12,156,589 Documents</text>

  <!-- ══════ EXTERNAL ROW ══════ -->
  <rect x="40" y="68" width="130" height="52" rx="10" fill="#fff" stroke="#4a8db8" stroke-width="2" filter="url(#sh)"/>
  <rect x="40" y="68" width="130" height="4" rx="10" fill="#4a8db8"/>
  <text x="105" y="96" text-anchor="middle" font-size="12" font-weight="700" fill="#1e293b">Users</text>
  <text x="105" y="110" text-anchor="middle" font-size="9" fill="#94a3b8">studywithtymee.com</text>

  <rect x="210" y="68" width="140" height="52" rx="10" fill="#fff" stroke="#9b59b6" stroke-width="1.5" filter="url(#sh)"/>
  <rect x="210" y="68" width="140" height="4" rx="10" fill="#9b59b6"/>
  <text x="280" y="96" text-anchor="middle" font-size="12" font-weight="700" fill="#1e293b">Frontend</text>
  <text x="280" y="110" text-anchor="middle" font-size="9" fill="#94a3b8">Next.js · Vercel · Beacon API</text>

  <rect x="390" y="68" width="130" height="52" rx="10" fill="#fff" stroke="#94a3b8" stroke-width="1" filter="url(#sh)"/>
  <rect x="390" y="68" width="130" height="4" rx="10" fill="#94a3b8"/>
  <text x="455" y="96" text-anchor="middle" font-size="12" font-weight="700" fill="#1e293b">GitHub GHCR</text>
  <text x="455" y="110" text-anchor="middle" font-size="9" fill="#94a3b8">CI/CD · Docker Images</text>

  <rect x="560" y="68" width="140" height="52" rx="10" fill="#fff" stroke="#27ae60" stroke-width="1.5" filter="url(#sh)"/>
  <rect x="560" y="68" width="140" height="4" rx="10" fill="#27ae60"/>
  <text x="630" y="96" text-anchor="middle" font-size="12" font-weight="700" fill="#1e293b">Gemini API</text>
  <text x="630" y="110" text-anchor="middle" font-size="9" fill="#94a3b8">3.1 Flash Lite · LTR + RAG</text>

  <!-- External connections -->
  <path d="M170,94 L210,94" stroke="#4a8db8" stroke-width="1.5" fill="none" marker-end="url(#ar)"/>
  <path d="M280,120 L280,160" stroke="#4a8db8" stroke-width="1.5" fill="none" stroke-dasharray="5 3"/>

  <!-- ══════ SERVER 1 ══════ -->
  <rect x="30" y="145" width="540" height="295" rx="14" fill="#fff" stroke="#e2e8f0" stroke-width="1.5" filter="url(#sh)"/>
  <rect x="30" y="145" width="540" height="28" rx="14" fill="#eef5fa"/>
  <rect x="30" y="163" width="540" height="10" fill="#eef5fa"/>
  <text x="50" y="165" font-size="10" font-weight="600" fill="#4a8db8" letter-spacing="0.06em">SERVER 1 — ARM AMPERE A1 · 2 vCPU · 12GB</text>

  <!-- Nginx -->
  <rect x="50" y="182" width="110" height="56" rx="8" fill="#fff" stroke="#27ae60" stroke-width="1.5" filter="url(#shSm)"/>
  <rect x="50" y="182" width="110" height="3" rx="8" fill="#27ae60"/>
  <text x="105" y="208" text-anchor="middle" font-size="11" font-weight="700" fill="#27ae60">Nginx</text>
  <text x="105" y="224" text-anchor="middle" font-size="9" fill="#94a3b8">:80 :443 · L7 LB</text>

  <!-- App 1 -->
  <rect x="190" y="182" width="150" height="56" rx="8" fill="#fff" stroke="#4a8db8" stroke-width="2" filter="url(#shSm)"/>
  <rect x="190" y="182" width="150" height="3" rx="8" fill="#4a8db8"/>
  <text x="265" y="208" text-anchor="middle" font-size="11" font-weight="700" fill="#4a8db8">Spring Boot App</text>
  <text x="265" y="224" text-anchor="middle" font-size="9" fill="#94a3b8">Java 25 · Primary · 2GB</text>

  <!-- MySQL Primary -->
  <rect x="370" y="182" width="110" height="56" rx="8" fill="#fff" stroke="#e67e22" stroke-width="1.5" filter="url(#shSm)"/>
  <rect x="370" y="182" width="110" height="3" rx="8" fill="#e67e22"/>
  <text x="425" y="208" text-anchor="middle" font-size="11" font-weight="700" fill="#e67e22">MySQL 8.0</text>
  <text x="425" y="224" text-anchor="middle" font-size="9" fill="#94a3b8">Primary · 4GB · 12M</text>

  <!-- Redis Shard 1 -->
  <rect x="500" y="182" width="55" height="56" rx="8" fill="#fff" stroke="#e74c3c" stroke-width="1.5" filter="url(#shSm)"/>
  <rect x="500" y="182" width="55" height="3" rx="8" fill="#e74c3c"/>
  <text x="527" y="208" text-anchor="middle" font-size="10" font-weight="700" fill="#e74c3c">Redis</text>
  <text x="527" y="222" text-anchor="middle" font-size="8" fill="#94a3b8">256MB</text>

  <!-- Lucene -->
  <rect x="50" y="255" width="110" height="50" rx="8" fill="#fff" stroke="#9b59b6" stroke-width="1.5" filter="url(#shSm)"/>
  <rect x="50" y="255" width="110" height="3" rx="8" fill="#9b59b6"/>
  <text x="105" y="280" text-anchor="middle" font-size="11" font-weight="700" fill="#9b59b6">Lucene Index</text>
  <text x="105" y="296" text-anchor="middle" font-size="9" fill="#94a3b8">42GB · NRT · Nori</text>

  <!-- App internals -->
  <rect x="190" y="255" width="365" height="50" rx="8" fill="#f8fafb" stroke="#e2e8f0" stroke-width="1"/>
  <text x="200" y="270" font-size="8" font-weight="600" fill="#94a3b8">APP INTERNALS</text>
  <rect x="200" y="279" width="48" height="18" rx="4" fill="#eef5fa" stroke="#4a8db8" stroke-width="0.8"/>
  <text x="224" y="292" text-anchor="middle" font-size="7" font-weight="600" fill="#4a8db8">Search</text>
  <rect x="254" y="279" width="58" height="18" rx="4" fill="#eef5fa" stroke="#4a8db8" stroke-width="0.8"/>
  <text x="283" y="292" text-anchor="middle" font-size="7" font-weight="600" fill="#4a8db8">Cache L1+L2</text>
  <rect x="318" y="279" width="38" height="18" rx="4" fill="#f0fdf4" stroke="#27ae60" stroke-width="0.8"/>
  <text x="337" y="292" text-anchor="middle" font-size="7" font-weight="600" fill="#27ae60">CDC</text>
  <rect x="362" y="279" width="38" height="18" rx="4" fill="#faf5ff" stroke="#9b59b6" stroke-width="0.8"/>
  <text x="381" y="292" text-anchor="middle" font-size="7" font-weight="600" fill="#9b59b6">RAG</text>
  <rect x="406" y="279" width="36" height="18" rx="4" fill="#fff7ed" stroke="#e67e22" stroke-width="0.8"/>
  <text x="424" y="292" text-anchor="middle" font-size="7" font-weight="600" fill="#e67e22">LTR</text>
  <rect x="448" y="279" width="48" height="18" rx="4" fill="#f0fdf4" stroke="#27ae60" stroke-width="0.8"/>
  <text x="472" y="292" text-anchor="middle" font-size="7" font-weight="600" fill="#27ae60">ClickLog</text>
  <rect x="502" y="279" width="40" height="18" rx="4" fill="#fef2f2" stroke="#e74c3c" stroke-width="0.8"/>
  <text x="522" y="292" text-anchor="middle" font-size="7" font-weight="600" fill="#e74c3c">Filter</text>

  <!-- Sidecars -->
  <rect x="50" y="324" width="55" height="24" rx="5" fill="#f8fafb" stroke="#e2e8f0"/>
  <text x="77" y="340" text-anchor="middle" font-size="8" fill="#94a3b8">Alloy</text>
  <rect x="112" y="324" width="65" height="24" rx="5" fill="#f8fafb" stroke="#e2e8f0"/>
  <text x="144" y="340" text-anchor="middle" font-size="8" fill="#94a3b8">cAdvisor</text>
  <rect x="184" y="324" width="80" height="24" rx="5" fill="#f8fafb" stroke="#e2e8f0"/>
  <text x="224" y="340" text-anchor="middle" font-size="8" fill="#94a3b8">Node Exporter</text>
  <rect x="271" y="324" width="80" height="24" rx="5" fill="#f8fafb" stroke="#e2e8f0"/>
  <text x="311" y="340" text-anchor="middle" font-size="8" fill="#94a3b8">MySQL Export</text>
  <rect x="358" y="324" width="78" height="24" rx="5" fill="#f8fafb" stroke="#e2e8f0"/>
  <text x="397" y="340" text-anchor="middle" font-size="8" fill="#94a3b8">Redis Export</text>
  <rect x="443" y="324" width="60" height="24" rx="5" fill="#fef2f2" stroke="#e74c3c" stroke-width="0.8"/>
  <text x="473" y="340" text-anchor="middle" font-size="8" fill="#e74c3c">Shard 1</text>

  <!-- Server 1 connections -->
  <path d="M160,210 L190,210" stroke="#4a8db8" stroke-width="1.5" fill="none" marker-end="url(#ar)"/>
  <path d="M340,210 L370,210" stroke="#e67e22" stroke-width="1.5" fill="none" marker-end="url(#arO)"/>
  <path d="M340,220 C400,230 460,228 500,210" stroke="#e74c3c" stroke-width="1" fill="none" stroke-dasharray="4 2"/>

  <!-- ══════ SERVER 2 ══════ -->
  <rect x="30" y="460" width="540" height="165" rx="14" fill="#fff" stroke="#e2e8f0" stroke-width="1.5" filter="url(#sh)"/>
  <rect x="30" y="460" width="540" height="28" rx="14" fill="#eef5fa"/>
  <rect x="30" y="478" width="540" height="10" fill="#eef5fa"/>
  <text x="50" y="480" font-size="10" font-weight="600" fill="#4a8db8" letter-spacing="0.06em">SERVER 2 — ARM AMPERE A1 · 2 vCPU · 12GB</text>

  <!-- App 2 -->
  <rect x="50" y="497" width="130" height="52" rx="8" fill="#fff" stroke="#4a8db8" stroke-width="1.5" filter="url(#shSm)"/>
  <rect x="50" y="497" width="130" height="3" rx="8" fill="#4a8db8" opacity="0.6"/>
  <text x="115" y="520" text-anchor="middle" font-size="11" font-weight="700" fill="#4a8db8">App 2 (Replica)</text>
  <text x="115" y="536" text-anchor="middle" font-size="9" fill="#94a3b8">Read Only · Lucene</text>

  <!-- MySQL Replica -->
  <rect x="200" y="497" width="110" height="52" rx="8" fill="#fff" stroke="#e67e22" stroke-width="1" filter="url(#shSm)"/>
  <rect x="200" y="497" width="110" height="3" rx="8" fill="#e67e22" opacity="0.5"/>
  <text x="255" y="520" text-anchor="middle" font-size="11" font-weight="700" fill="#e67e22">MySQL Replica</text>
  <text x="255" y="536" text-anchor="middle" font-size="9" fill="#94a3b8">Read Replica · 4GB</text>

  <!-- Kafka -->
  <rect x="330" y="497" width="100" height="52" rx="8" fill="#fff" stroke="#27ae60" stroke-width="1.5" filter="url(#shSm)"/>
  <rect x="330" y="497" width="100" height="3" rx="8" fill="#27ae60"/>
  <text x="380" y="520" text-anchor="middle" font-size="11" font-weight="700" fill="#27ae60">Kafka 4.2</text>
  <text x="380" y="536" text-anchor="middle" font-size="9" fill="#94a3b8">KRaft · 2GB</text>

  <!-- Debezium -->
  <rect x="450" y="497" width="105" height="52" rx="8" fill="#fff" stroke="#27ae60" stroke-width="1" filter="url(#shSm)"/>
  <rect x="450" y="497" width="105" height="3" rx="8" fill="#27ae60" opacity="0.5"/>
  <text x="502" y="520" text-anchor="middle" font-size="11" font-weight="700" fill="#27ae60">Debezium 3.4</text>
  <text x="502" y="536" text-anchor="middle" font-size="9" fill="#94a3b8">MySQL CDC · 1GB</text>

  <!-- Redis Shards 2,3 -->
  <rect x="50" y="562" width="62" height="24" rx="5" fill="#fef2f2" stroke="#e74c3c" stroke-width="0.8"/>
  <text x="81" y="578" text-anchor="middle" font-size="8" fill="#e74c3c">Shard 2 :6382</text>
  <rect x="120" y="562" width="62" height="24" rx="5" fill="#fef2f2" stroke="#e74c3c" stroke-width="0.8"/>
  <text x="151" y="578" text-anchor="middle" font-size="8" fill="#e74c3c">Shard 3 :6383</text>
  <rect x="190" y="562" width="62" height="24" rx="5" fill="#f8fafb" stroke="#e2e8f0"/>
  <text x="221" y="578" text-anchor="middle" font-size="8" fill="#94a3b8">Alloy</text>
  <rect x="260" y="562" width="80" height="24" rx="5" fill="#f8fafb" stroke="#e2e8f0"/>
  <text x="300" y="578" text-anchor="middle" font-size="8" fill="#94a3b8">Node Exporter</text>

  <!-- Cross-server connections -->
  <path d="M425,238 C425,350 255,400 255,497" stroke="#e67e22" stroke-width="1.5" fill="none" marker-end="url(#arO)" stroke-dasharray="6 3"/>
  <text x="355" y="380" fill="#e67e22" font-size="8" font-weight="600" transform="rotate(-70,355,380)">Binlog Replication</text>

  <path d="M502,497 C502,420 440,380 440,260" stroke="#27ae60" stroke-width="1.5" fill="none" marker-end="url(#arG)" stroke-dasharray="6 3"/>

  <path d="M380,497 C340,440 280,420 265,320" stroke="#27ae60" stroke-width="1.5" fill="none" marker-end="url(#arG)"/>
  <text x="295" y="425" fill="#27ae60" font-size="8" font-weight="600">CDC Events</text>

  <path d="M105,238 C105,380 115,440 115,497" stroke="#4a8db8" stroke-width="1" fill="none" stroke-dasharray="4 2" marker-end="url(#ar)"/>
  <text x="118" y="415" fill="#4a8db8" font-size="8" font-weight="600" transform="rotate(-90,118,415)">GET (Read LB)</text>

  <path d="M527,238 C540,380 100,440 82,562" stroke="#e74c3c" stroke-width="1" fill="none" stroke-dasharray="4 2"/>
  <path d="M527,238 C550,380 170,440 157,562" stroke="#e74c3c" stroke-width="1" fill="none" stroke-dasharray="4 2"/>

  <!-- ══════ SERVER 3 — Monitoring ══════ -->
  <rect x="610" y="145" width="280" height="180" rx="14" fill="#fff" stroke="#e2e8f0" stroke-width="1.5" filter="url(#sh)"/>
  <rect x="610" y="145" width="280" height="28" rx="14" fill="#faf5ff"/>
  <rect x="610" y="163" width="280" height="10" fill="#faf5ff"/>
  <text x="630" y="165" font-size="10" font-weight="600" fill="#9b59b6" letter-spacing="0.06em">SERVER 3 — AMD · 1GB</text>

  <rect x="625" y="182" width="80" height="50" rx="8" fill="#fff" stroke="#e67e22" stroke-width="1.5" filter="url(#shSm)"/>
  <rect x="625" y="182" width="80" height="3" rx="8" fill="#e67e22"/>
  <text x="665" y="206" text-anchor="middle" font-size="11" font-weight="700" fill="#e67e22">Grafana</text>
  <text x="665" y="222" text-anchor="middle" font-size="9" fill="#94a3b8">250MB</text>

  <rect x="715" y="182" width="75" height="50" rx="8" fill="#fff" stroke="#4a8db8" stroke-width="1" filter="url(#shSm)"/>
  <rect x="715" y="182" width="75" height="3" rx="8" fill="#4a8db8"/>
  <text x="752" y="206" text-anchor="middle" font-size="11" font-weight="700" fill="#4a8db8">Loki</text>
  <text x="752" y="222" text-anchor="middle" font-size="9" fill="#94a3b8">256MB</text>

  <rect x="800" y="182" width="75" height="50" rx="8" fill="#fff" stroke="#9b59b6" stroke-width="1" filter="url(#shSm)"/>
  <rect x="800" y="182" width="75" height="3" rx="8" fill="#9b59b6"/>
  <text x="837" y="206" text-anchor="middle" font-size="11" font-weight="700" fill="#9b59b6">InfluxDB</text>
  <text x="837" y="222" text-anchor="middle" font-size="9" fill="#94a3b8">256MB · k6</text>

  <rect x="625" y="247" width="72" height="28" rx="5" fill="#f8fafb" stroke="#e2e8f0"/>
  <text x="661" y="265" text-anchor="middle" font-size="8" fill="#94a3b8">Nginx :80</text>
  <rect x="705" y="247" width="82" height="28" rx="5" fill="#f8fafb" stroke="#e2e8f0"/>
  <text x="746" y="265" text-anchor="middle" font-size="8" fill="#94a3b8">Node Exporter</text>

  <!-- ══════ SERVER 4 — Prometheus ══════ -->
  <rect x="610" y="345" width="280" height="110" rx="14" fill="#fff" stroke="#e2e8f0" stroke-width="1.5" filter="url(#sh)"/>
  <rect x="610" y="345" width="280" height="28" rx="14" fill="#faf5ff"/>
  <rect x="610" y="363" width="280" height="10" fill="#faf5ff"/>
  <text x="630" y="365" font-size="10" font-weight="600" fill="#9b59b6" letter-spacing="0.06em">SERVER 4 — AMD · 1GB</text>

  <rect x="625" y="382" width="120" height="50" rx="8" fill="#fff" stroke="#9b59b6" stroke-width="1.5" filter="url(#shSm)"/>
  <rect x="625" y="382" width="120" height="3" rx="8" fill="#9b59b6"/>
  <text x="685" y="406" text-anchor="middle" font-size="11" font-weight="700" fill="#9b59b6">Prometheus</text>
  <text x="685" y="422" text-anchor="middle" font-size="9" fill="#94a3b8">500MB · 30d</text>

  <rect x="760" y="382" width="82" height="50" rx="8" fill="#f8fafb" stroke="#e2e8f0"/>
  <text x="801" y="412" text-anchor="middle" font-size="9" fill="#94a3b8">Node Exporter</text>

  <!-- Monitoring connections -->
  <path d="M110,342 C110,360 400,350 610,237" stroke="#9b59b6" stroke-width="1" fill="none" stroke-dasharray="4 2" marker-end="url(#arP)"/>
  <text x="380" y="310" fill="#9b59b6" font-size="8" font-weight="600">Logs Push</text>

  <path d="M625,407 C560,407 500,370 490,353" stroke="#9b59b6" stroke-width="1" fill="none" stroke-dasharray="4 2"/>
  <text x="545" y="390" fill="#9b59b6" font-size="8" font-weight="600">Scrape</text>

  <!-- ══════ LEGEND ══════ -->
  <rect x="610" y="480" width="280" height="145" rx="12" fill="#fff" stroke="#e2e8f0" stroke-width="1.5" filter="url(#sh)"/>
  <text x="630" y="503" font-size="11" font-weight="700" fill="#1e293b">Data Flow</text>

  <line x1="630" y1="518" x2="670" y2="518" stroke="#4a8db8" stroke-width="2"/>
  <text x="680" y="522" font-size="9" fill="#64748b">HTTP / REST API</text>

  <line x1="630" y1="538" x2="670" y2="538" stroke="#27ae60" stroke-width="2"/>
  <text x="680" y="542" font-size="9" fill="#64748b">Kafka (CDC + Click Logs)</text>

  <line x1="630" y1="558" x2="670" y2="558" stroke="#e67e22" stroke-width="2" stroke-dasharray="6 3"/>
  <text x="680" y="562" font-size="9" fill="#64748b">MySQL Replication</text>

  <line x1="630" y1="578" x2="670" y2="578" stroke="#e74c3c" stroke-width="2" stroke-dasharray="4 2"/>
  <text x="680" y="582" font-size="9" fill="#64748b">Redis Sharding (Consistent Hash)</text>

  <line x1="630" y1="598" x2="670" y2="598" stroke="#9b59b6" stroke-width="2" stroke-dasharray="4 2"/>
  <text x="680" y="602" font-size="9" fill="#64748b">Monitoring (Prometheus + Loki)</text>

  <!-- ══════ TECH STACK BAR ══════ -->
  <rect x="30" y="650" width="860" height="75" rx="12" fill="#fff" stroke="#e2e8f0" stroke-width="1.5" filter="url(#sh)"/>
  <text x="50" y="672" font-size="11" font-weight="700" fill="#1e293b">Tech Stack</text>

  <rect x="50" y="682" width="68" height="20" rx="5" fill="#eef5fa" stroke="#4a8db8" stroke-width="0.8"/>
  <text x="84" y="696" text-anchor="middle" font-size="8" font-weight="600" fill="#4a8db8">Spring Boot 4</text>
  <rect x="124" y="682" width="48" height="20" rx="5" fill="#eef5fa" stroke="#4a8db8" stroke-width="0.8"/>
  <text x="148" y="696" text-anchor="middle" font-size="8" font-weight="600" fill="#4a8db8">Java 25</text>
  <rect x="178" y="682" width="62" height="20" rx="5" fill="#faf5ff" stroke="#9b59b6" stroke-width="0.8"/>
  <text x="209" y="696" text-anchor="middle" font-size="8" font-weight="600" fill="#9b59b6">Lucene 10.3</text>
  <rect x="246" y="682" width="38" height="20" rx="5" fill="#faf5ff" stroke="#9b59b6" stroke-width="0.8"/>
  <text x="265" y="696" text-anchor="middle" font-size="8" font-weight="600" fill="#9b59b6">Nori</text>
  <rect x="290" y="682" width="56" height="20" rx="5" fill="#f0fdf4" stroke="#27ae60" stroke-width="0.8"/>
  <text x="318" y="696" text-anchor="middle" font-size="8" font-weight="600" fill="#27ae60">Kafka 4.2</text>
  <rect x="352" y="682" width="55" height="20" rx="5" fill="#fef2f2" stroke="#e74c3c" stroke-width="0.8"/>
  <text x="379" y="696" text-anchor="middle" font-size="8" font-weight="600" fill="#e74c3c">Redis 7.4</text>
  <rect x="413" y="682" width="56" height="20" rx="5" fill="#fff7ed" stroke="#e67e22" stroke-width="0.8"/>
  <text x="441" y="696" text-anchor="middle" font-size="8" font-weight="600" fill="#e67e22">MySQL 8.0</text>
  <rect x="475" y="682" width="62" height="20" rx="5" fill="#faf5ff" stroke="#9b59b6" stroke-width="0.8"/>
  <text x="506" y="696" text-anchor="middle" font-size="8" font-weight="600" fill="#9b59b6">XGBoost4J</text>
  <rect x="543" y="682" width="55" height="20" rx="5" fill="#f0fdf4" stroke="#27ae60" stroke-width="0.8"/>
  <text x="570" y="696" text-anchor="middle" font-size="8" font-weight="600" fill="#27ae60">Debezium</text>
  <rect x="604" y="682" width="55" height="20" rx="5" fill="#fff7ed" stroke="#e67e22" stroke-width="0.8"/>
  <text x="631" y="696" text-anchor="middle" font-size="8" font-weight="600" fill="#e67e22">Grafana</text>
  <rect x="665" y="682" width="62" height="20" rx="5" fill="#faf5ff" stroke="#9b59b6" stroke-width="0.8"/>
  <text x="696" y="696" text-anchor="middle" font-size="8" font-weight="600" fill="#9b59b6">Prometheus</text>
  <rect x="733" y="682" width="50" height="20" rx="5" fill="#f8fafb" stroke="#e2e8f0"/>
  <text x="758" y="696" text-anchor="middle" font-size="8" font-weight="600" fill="#94a3b8">Ansible</text>
  <rect x="789" y="682" width="50" height="20" rx="5" fill="#f8fafb" stroke="#e2e8f0"/>
  <text x="814" y="696" text-anchor="middle" font-size="8" font-weight="600" fill="#94a3b8">Flyway</text>

  <!-- Key numbers -->
  <text x="50" y="714" font-size="9" fill="#94a3b8">12M docs · 42GB index · 30 categories · 2.16M tags · LTR NDCG +4.8%p · 100 VU 0% errors · P95 190ms</text>
</svg>
